<svg width="130" height="41" viewBox="0 0 130 41" fill="none" xmlns="http://www.w3.org/2000/svg">
<path d="M119.648 0.0494464H10.3582C9.95986 0.0494464 9.56627 0.0494464 9.16895 0.0514464C8.83635 0.0534464 8.50641 0.0592564 8.17062 0.0641464C7.44114 0.0720482 6.71337 0.131123 5.99364 0.240856C5.27492 0.352979 4.57871 0.564362 3.92857 0.867856C3.27922 1.17392 2.68589 1.57161 2.17011 2.04652C1.65162 2.52008 1.21942 3.06746 0.890121 3.66761C0.559918 4.26656 0.330954 4.90838 0.211137 5.57093C0.090181 6.23263 0.0250935 6.90197 0.0164586 7.57293C0.00637702 7.87953 0.00531237 8.18715 0 8.49379V31.608C0.00531237 31.9185 0.00637702 32.2193 0.0164586 32.5299C0.0250961 33.2009 0.0901836 33.8702 0.211137 34.5318C0.330623 35.1948 0.5596 35.837 0.890121 36.4361C1.21927 37.0343 1.65153 37.5795 2.17011 38.0504C2.68394 38.5275 3.27765 38.9254 3.92857 39.2291C4.57871 39.5335 5.27484 39.7461 5.99364 39.8599C6.71349 39.9688 7.44118 40.0279 8.17062 40.0367C8.50641 40.0435 8.83635 40.0474 9.16895 40.0474C9.56626 40.0494 9.95988 40.0494 10.3582 40.0494H119.648C120.038 40.0494 120.435 40.0494 120.825 40.0474C121.156 40.0474 121.496 40.0435 121.827 40.0367C122.555 40.0284 123.281 39.9693 124 39.8599C124.721 39.7453 125.419 39.5327 126.073 39.2291C126.723 38.9253 127.316 38.5273 127.829 38.0504C128.347 37.5777 128.78 37.0329 129.113 36.4361C129.441 35.8365 129.668 35.1944 129.786 34.5318C129.907 33.8701 129.974 33.2009 129.987 32.5299C129.992 32.2193 129.992 31.9185 129.992 31.608C130 31.2447 130 30.8834 130 30.5142V9.58558C130 9.21937 130 8.85609 129.992 8.49379C129.992 8.18715 129.992 7.87953 129.987 7.57289C129.974 6.90187 129.907 6.23268 129.786 5.57089C129.668 4.90873 129.441 4.26695 129.113 3.66757C128.442 2.46464 127.379 1.48547 126.073 0.867766C125.419 0.565014 124.721 0.353687 124 0.240766C123.281 0.130549 122.555 0.0714542 121.827 0.0640064C121.496 0.0591264 121.156 0.0532664 120.825 0.0513164C120.435 0.0493164 120.038 0.0493164 119.648 0.0493164V0.0494464Z" fill="#A6A6A6"/>
<path d="M9.17407 39.1746C8.84308 39.1746 8.52008 39.1707 8.19168 39.1639C7.51137 39.1557 6.83265 39.1012 6.16109 39.0008C5.53489 38.9015 4.92828 38.7168 4.36125 38.4529C3.79942 38.1911 3.28699 37.8478 2.84359 37.4363C2.39376 37.0295 2.01926 36.5578 1.73493 36.0398C1.44746 35.5183 1.24852 34.9595 1.14503 34.3826C1.03327 33.7627 0.972799 33.1359 0.964147 32.5076C0.957259 32.2967 0.948242 31.5945 0.948242 31.5945V8.4939C0.948242 8.4939 0.957846 7.80249 0.964201 7.59936C0.972486 6.97204 1.0326 6.34621 1.14403 5.72729C1.24771 5.14881 1.44681 4.58831 1.73443 4.06519C2.01772 3.5475 2.39014 3.07542 2.83725 2.66724C3.28386 2.25518 3.79794 1.91016 4.36072 1.64477C4.92644 1.38165 5.53191 1.19829 6.15684 1.10083C6.83061 0.999397 7.51168 0.944557 8.19435 0.936771L9.17461 0.924561H120.82L121.812 0.937261C122.488 0.94466 123.163 0.999011 123.831 1.09985C124.462 1.19854 125.074 1.38318 125.646 1.6477C126.773 2.18255 127.691 3.02872 128.269 4.06763C128.552 4.58714 128.749 5.14307 128.851 5.71655C128.964 6.34055 129.027 6.9713 129.04 7.60376C129.043 7.88696 129.043 8.19116 129.043 8.4939C129.051 8.8689 129.051 9.22583 129.051 9.58569V30.5144C129.051 30.8777 129.051 31.2322 129.043 31.5896C129.043 31.9148 129.043 32.2127 129.039 32.5193C129.026 33.1404 128.964 33.7599 128.853 34.3728C128.752 34.9538 128.554 35.5171 128.266 36.0428C127.98 36.5552 127.608 37.0228 127.163 37.4285C126.719 37.8422 126.206 38.1875 125.643 38.451C125.072 38.717 124.461 38.9023 123.831 39.0008C123.159 39.1017 122.48 39.1562 121.8 39.1639C121.482 39.1707 121.149 39.1746 120.825 39.1746L119.647 39.1766L9.17407 39.1746Z" fill="black"/>
<path d="M26.9084 20.3501C26.9201 19.5155 27.161 18.6971 27.6086 17.9711C28.0562 17.2452 28.696 16.6352 29.4685 16.1981C28.9778 15.5529 28.3304 15.022 27.5777 14.6474C26.825 14.2729 25.9878 14.065 25.1326 14.0404C23.3084 13.8641 21.5398 15.0452 20.6102 15.0452C19.6626 15.0452 18.2313 14.0579 16.69 14.0871C15.6931 14.1167 14.7215 14.3836 13.8699 14.8616C13.0183 15.3397 12.3158 16.0127 11.8307 16.815C9.72968 20.1634 11.2969 25.0844 13.3095 27.791C14.3165 29.1164 15.4933 30.5968 17.0332 30.5443C18.5401 30.4868 19.1028 29.6599 20.9218 29.6599C22.7238 29.6599 23.2518 30.5443 24.8229 30.511C26.4399 30.4868 27.4586 29.1797 28.4303 27.8418C29.1537 26.8975 29.7105 25.8537 30.0798 24.7493C29.1404 24.3836 28.3388 23.7714 27.7748 22.9891C27.2108 22.2068 26.9095 21.289 26.9084 20.3501Z" fill="white"/>
<path d="M23.941 12.2604C24.8227 11.2862 25.257 10.034 25.1518 8.76978C23.8049 8.9 22.5607 9.49255 21.6672 10.4294C21.2303 10.8871 20.8957 11.4195 20.6825 11.9963C20.4693 12.573 20.3817 13.1828 20.4247 13.7908C21.0984 13.7972 21.7649 13.6627 22.374 13.3977C22.9831 13.1326 23.5189 12.7437 23.941 12.2604Z" fill="white"/>
<path d="M45.9561 27.1892H40.8138L39.5789 30.5457H37.4009L42.2715 18.1277H44.5345L49.4051 30.5457H47.1899L45.9561 27.1892ZM41.3464 25.6404H45.4225L43.4131 20.1931H43.3569L41.3464 25.6404Z" fill="white"/>
<path d="M59.9242 26.0193C59.9242 28.8327 58.2882 30.6403 55.8195 30.6403C55.1941 30.6705 54.5722 30.5379 54.0249 30.2577C53.4776 29.9776 53.027 29.5612 52.7248 29.0563H52.6781V33.5407H50.6592V21.4919H52.6134V22.9978H52.6505C52.9666 22.4953 53.4248 22.0811 53.9763 21.7993C54.5277 21.5174 55.1519 21.3785 55.7824 21.3972C58.2786 21.3972 59.9242 23.2136 59.9242 26.0193ZM57.849 26.0193C57.849 24.1863 56.8199 22.9812 55.2498 22.9812C53.7072 22.9812 52.6696 24.2116 52.6696 26.0193C52.6696 27.8435 53.7072 29.0652 55.2498 29.0652C56.8199 29.0652 57.849 27.8689 57.849 26.0193Z" fill="white"/>
<path d="M70.7498 26.0192C70.7498 28.8327 69.1139 30.6403 66.6452 30.6403C66.0198 30.6705 65.3979 30.5378 64.8505 30.2577C64.3032 29.9776 63.8527 29.5612 63.5505 29.0563H63.5038V33.5407H61.4849V21.4919H63.4391V22.9978H63.4762C63.7923 22.4953 64.2504 22.0811 64.8019 21.7993C65.3534 21.5174 65.9776 21.3785 66.608 21.3972C69.1044 21.3972 70.7498 23.2136 70.7498 26.0192ZM68.6747 26.0192C68.6747 24.1862 67.6456 22.9812 66.0755 22.9812C64.5329 22.9812 63.4953 24.2116 63.4953 26.0192C63.4953 27.8435 64.5329 29.0651 66.0755 29.0651C67.6456 29.0651 68.6747 27.8689 68.6747 26.0192H68.6747Z" fill="white"/>
<path d="M77.9046 27.0857C78.0542 28.3172 79.3538 29.1257 81.1298 29.1257C82.8315 29.1257 84.0558 28.3172 84.0558 27.2068C84.0558 26.2429 83.3174 25.6658 81.569 25.2703L79.8206 24.8826C77.3434 24.3318 76.1933 23.2654 76.1933 21.5349C76.1933 19.3923 78.2218 17.9207 81.1022 17.9207C83.9528 17.9207 85.907 19.3923 85.9728 21.5349H83.9348C83.8128 20.2957 82.6999 19.5476 81.0735 19.5476C79.4471 19.5476 78.3342 20.3045 78.3342 21.406C78.3342 22.2839 79.045 22.8005 80.7839 23.196L82.2702 23.532C85.0381 24.1345 86.1882 25.158 86.1882 26.9743C86.1882 29.2976 84.1777 30.7527 80.9801 30.7527C77.9884 30.7527 75.9684 29.3318 75.8379 27.0857L77.9046 27.0857Z" fill="white"/>
<path d="M90.545 19.3494V21.4919H92.4154V22.9636H90.545V27.9548C90.545 28.7302 90.9195 29.0916 91.7417 29.0916C91.9637 29.088 92.1854 29.0736 92.4058 29.0486V30.5114C92.0362 30.575 91.6604 30.6038 91.2844 30.5974C89.2931 30.5974 88.5165 29.9089 88.5165 28.153V22.9636H87.0864V21.4919H88.5165V19.3494H90.545Z" fill="white"/>
<path d="M93.4985 26.0193C93.4985 23.1707 95.3212 21.3806 98.1634 21.3806C101.015 21.3806 102.829 23.1706 102.829 26.0193C102.829 28.8757 101.025 30.658 98.1634 30.658C95.3031 30.658 93.4985 28.8757 93.4985 26.0193ZM100.772 26.0193C100.772 24.0652 99.7993 22.9119 98.1634 22.9119C96.5274 22.9119 95.5556 24.074 95.5556 26.0193C95.5556 27.9812 96.5274 29.1257 98.1634 29.1257C99.7993 29.1257 100.772 27.9812 100.772 26.0193H100.772Z" fill="white"/>
<path d="M104.494 21.4921H106.42V23.0331H106.466C106.597 22.5518 106.903 22.1264 107.334 21.8286C107.765 21.5307 108.294 21.3784 108.832 21.3973C109.065 21.3966 109.297 21.4198 109.524 21.4667V23.2049C109.23 23.1223 108.924 23.0844 108.617 23.0926C108.324 23.0817 108.031 23.1293 107.76 23.2322C107.488 23.3351 107.244 23.4908 107.044 23.6887C106.845 23.8866 106.694 24.1219 106.602 24.3786C106.51 24.6353 106.48 24.9072 106.513 25.1756V30.5458H104.494L104.494 21.4921Z" fill="white"/>
<path d="M118.832 27.8865C118.561 29.53 116.822 30.658 114.597 30.658C111.736 30.658 109.96 28.8933 109.96 26.0623C109.96 23.2224 111.745 21.3806 114.512 21.3806C117.234 21.3806 118.945 23.1013 118.945 25.8464V26.4832H111.998V26.5955C111.966 26.9287 112.011 27.2643 112.131 27.5802C112.251 27.896 112.442 28.1848 112.692 28.4273C112.942 28.6699 113.246 28.8606 113.582 28.9869C113.919 29.1133 114.281 29.1722 114.644 29.1599C115.121 29.2011 115.6 29.0993 116.009 28.8699C116.418 28.6405 116.736 28.2955 116.915 27.8865L118.832 27.8865ZM112.008 25.1843H116.925C116.943 24.8847 116.894 24.5849 116.78 24.3037C116.666 24.0225 116.491 23.766 116.264 23.5502C116.037 23.3344 115.765 23.1641 115.464 23.0499C115.162 22.9357 114.838 22.88 114.512 22.8865C114.184 22.8847 113.858 22.9428 113.553 23.0576C113.249 23.1723 112.973 23.3414 112.74 23.555C112.507 23.7686 112.322 24.0226 112.197 24.3023C112.071 24.5819 112.007 24.8817 112.008 25.1843V25.1843Z" fill="white"/>
<path d="M41.0934 8.78045C41.5167 8.75249 41.9414 8.81135 42.3369 8.95279C42.7325 9.09422 43.089 9.3147 43.3808 9.59832C43.6726 9.88195 43.8924 10.2216 44.0243 10.5929C44.1561 10.9642 44.1969 11.3578 44.1435 11.7453C44.1435 13.6515 43.0243 14.7473 41.0934 14.7473H38.752V8.78045H41.0934ZM39.7588 13.9035H40.9809C41.2834 13.9201 41.5861 13.8744 41.8669 13.7698C42.1478 13.6652 42.3998 13.5043 42.6046 13.2987C42.8093 13.0931 42.9617 12.8481 43.0507 12.5815C43.1396 12.3149 43.1628 12.0334 43.1187 11.7575C43.1596 11.4826 43.134 11.2028 43.0437 10.9382C42.9534 10.6735 42.8007 10.4305 42.5964 10.2266C42.3921 10.0227 42.1413 9.86285 41.862 9.75861C41.5827 9.65437 41.2818 9.60829 40.9809 9.62366H39.7588V13.9035Z" fill="white"/>
<path d="M45.2804 12.4938C45.2497 12.1979 45.2865 11.8994 45.3884 11.6173C45.4904 11.3352 45.6552 11.0759 45.8724 10.8559C46.0896 10.6359 46.3544 10.4602 46.6497 10.3399C46.9451 10.2196 47.2645 10.1575 47.5874 10.1575C47.9103 10.1575 48.2297 10.2196 48.5251 10.3399C48.8204 10.4602 49.0852 10.6359 49.3024 10.8559C49.5196 11.0759 49.6844 11.3352 49.7864 11.6173C49.8883 11.8994 49.9251 12.1979 49.8944 12.4938C49.9257 12.7901 49.8894 13.0891 49.7877 13.3716C49.686 13.6541 49.5212 13.9139 49.304 14.1343C49.0867 14.3547 48.8217 14.5309 48.5261 14.6514C48.2305 14.772 47.9107 14.8342 47.5874 14.8342C47.2641 14.8342 46.9443 14.772 46.6487 14.6514C46.3531 14.5309 46.0881 14.3547 45.8708 14.1343C45.6536 13.9139 45.4888 13.6541 45.3871 13.3716C45.2854 13.0891 45.2491 12.7901 45.2804 12.4938ZM48.9013 12.4938C48.9013 11.5178 48.425 10.947 47.589 10.947C46.7498 10.947 46.2777 11.5178 46.2777 12.4939C46.2777 13.4777 46.7498 14.0441 47.589 14.0441C48.425 14.0441 48.9013 13.4738 48.9013 12.4938H48.9013Z" fill="white"/>
<path d="M56.0279 14.7473H55.0264L54.0154 11.4309H53.939L52.9322 14.7473H51.9402L50.5918 10.2444H51.571L52.4473 13.6804H52.5195L53.5252 10.2444H54.4514L55.4571 13.6804H55.5335L56.4056 10.2444H57.371L56.0279 14.7473Z" fill="white"/>
<path d="M58.5049 10.2444H59.4342V10.9598H59.5064C59.6288 10.7028 59.8352 10.4875 60.0969 10.3437C60.3585 10.1999 60.6624 10.1348 60.9662 10.1575C61.2042 10.141 61.4432 10.1741 61.6655 10.2542C61.8878 10.3343 62.0876 10.4594 62.2502 10.6202C62.4128 10.7811 62.534 10.9735 62.6049 11.1833C62.6757 11.3932 62.6944 11.615 62.6594 11.8323V14.7473H61.694V12.0555C61.694 11.3318 61.3524 10.972 60.6384 10.972C60.4768 10.965 60.3154 10.9904 60.1655 11.0462C60.0155 11.102 59.8804 11.187 59.7694 11.2954C59.6585 11.4038 59.5743 11.533 59.5227 11.6741C59.4711 11.8153 59.4532 11.965 59.4703 12.1131V14.7474H58.5049L58.5049 10.2444Z" fill="white"/>
<path d="M64.1978 8.48657H65.1632V14.7473H64.1978V8.48657Z" fill="white"/>
<path d="M66.505 12.4939C66.4743 12.198 66.5111 11.8994 66.6131 11.6173C66.715 11.3353 66.8799 11.0759 67.0972 10.8559C67.3144 10.6359 67.5792 10.4602 67.8745 10.3399C68.1699 10.2196 68.4893 10.1575 68.8123 10.1575C69.1352 10.1575 69.4546 10.2196 69.75 10.3399C70.0453 10.4602 70.3101 10.6359 70.5273 10.8559C70.7446 11.0759 70.9095 11.3353 71.0114 11.6173C71.1134 11.8994 71.1502 12.198 71.1195 12.4939C71.1508 12.7902 71.1144 13.0892 71.0127 13.3717C70.911 13.6542 70.7462 13.914 70.5289 14.1344C70.3116 14.3548 70.0466 14.531 69.751 14.6515C69.4553 14.772 69.1356 14.8343 68.8123 14.8343C68.4889 14.8343 68.1691 14.772 67.8735 14.6515C67.5779 14.531 67.3129 14.3548 67.0956 14.1344C66.8783 13.914 66.7135 13.6542 66.6118 13.3717C66.5101 13.0892 66.4737 12.7902 66.505 12.4939ZM70.1259 12.4939C70.1259 11.5179 69.6496 10.9471 68.8136 10.9471C67.9744 10.9471 67.5023 11.5179 67.5023 12.4939C67.5023 13.4778 67.9744 14.0442 68.8136 14.0442C69.6496 14.0442 70.1259 13.4739 70.1259 12.4939H70.1259Z" fill="white"/>
<path d="M72.1362 13.4739C72.1362 12.6633 72.7919 12.196 73.9557 12.1296L75.2808 12.0593V11.6707C75.2808 11.1951 74.9392 10.9265 74.2793 10.9265C73.7403 10.9265 73.3669 11.1086 73.2597 11.427H72.3251C72.4237 10.6536 73.2141 10.1575 74.3238 10.1575C75.5503 10.1575 76.242 10.7195 76.242 11.6707V14.7473H75.3126V14.1145H75.2362C75.0812 14.3415 74.8635 14.5265 74.6053 14.6508C74.3472 14.775 74.0578 14.8339 73.7669 14.8215C73.5615 14.8412 73.3539 14.821 73.1576 14.7623C72.9612 14.7036 72.7804 14.6077 72.6267 14.4807C72.4731 14.3537 72.3501 14.1985 72.2656 14.0251C72.1811 13.8517 72.137 13.6639 72.1362 13.4739ZM75.2808 13.0891V12.7126L74.0862 12.783C73.4125 12.8245 73.107 13.0354 73.107 13.4324C73.107 13.8376 73.4889 14.0735 74.0141 14.0735C74.168 14.0878 74.3234 14.0735 74.4711 14.0314C74.6189 13.9893 74.7559 13.9203 74.8741 13.8285C74.9923 13.7366 75.0892 13.6238 75.1591 13.4968C75.2289 13.3698 75.2703 13.2311 75.2808 13.0891Z" fill="white"/>
<path d="M77.5107 12.4939C77.5107 11.0711 78.3054 10.1697 79.5413 10.1697C79.8471 10.1567 80.1505 10.2241 80.4161 10.364C80.6818 10.5039 80.8987 10.7105 81.0415 10.9597H81.1136V8.48657H82.079V14.7473H81.1539V14.0359H81.0775C80.9237 14.2834 80.6992 14.4874 80.4285 14.6259C80.1577 14.7644 79.8509 14.832 79.5413 14.8215C78.2969 14.8216 77.5107 13.9202 77.5107 12.4939ZM78.508 12.4939C78.508 13.449 78.9971 14.0237 79.8151 14.0237C80.6288 14.0237 81.1317 13.4407 81.1317 12.4978C81.1317 11.5593 80.6235 10.968 79.8151 10.968C79.0024 10.968 78.508 11.5466 78.508 12.4939H78.508Z" fill="white"/>
<path d="M86.0734 12.4938C86.0427 12.1979 86.0794 11.8994 86.1814 11.6173C86.2833 11.3352 86.4482 11.0759 86.6654 10.8559C86.8826 10.6359 87.1474 10.4602 87.4427 10.3399C87.738 10.2196 88.0574 10.1575 88.3804 10.1575C88.7033 10.1575 89.0227 10.2196 89.318 10.3399C89.6134 10.4602 89.8781 10.6359 90.0953 10.8559C90.3125 11.0759 90.4774 11.3352 90.5793 11.6173C90.6813 11.8994 90.7181 12.1979 90.6873 12.4938C90.7187 12.7901 90.6823 13.0891 90.5806 13.3716C90.479 13.6541 90.3142 13.9139 90.0969 14.1343C89.8797 14.3547 89.6147 14.5309 89.3191 14.6514C89.0234 14.772 88.7037 14.8342 88.3804 14.8342C88.057 14.8342 87.7373 14.772 87.4417 14.6514C87.146 14.5309 86.8811 14.3547 86.6638 14.1343C86.4465 13.9139 86.2818 13.6541 86.1801 13.3716C86.0784 13.0891 86.0421 12.7901 86.0734 12.4938ZM89.6943 12.4938C89.6943 11.5178 89.2179 10.947 88.382 10.947C87.5428 10.947 87.0707 11.5178 87.0707 12.4939C87.0707 13.4777 87.5428 14.0441 88.382 14.0441C89.218 14.0441 89.6943 13.4738 89.6943 12.4938Z" fill="white"/>
<path d="M91.9829 10.2444H92.9123V10.9598H92.9844C93.1068 10.7028 93.3132 10.4875 93.5749 10.3437C93.8366 10.1999 94.1405 10.1348 94.4442 10.1575C94.6823 10.141 94.9213 10.1741 95.1435 10.2542C95.3658 10.3343 95.5656 10.4594 95.7283 10.6202C95.8909 10.7811 96.0121 10.9735 96.0829 11.1833C96.1537 11.3932 96.1724 11.615 96.1374 11.8323V14.7473H95.172V12.0555C95.172 11.3318 94.8304 10.972 94.1164 10.972C93.9548 10.965 93.7935 10.9904 93.6435 11.0462C93.4935 11.102 93.3584 11.187 93.2475 11.2954C93.1365 11.4038 93.0524 11.533 93.0007 11.6741C92.9491 11.8153 92.9312 11.965 92.9483 12.1131V14.7474H91.9829V10.2444Z" fill="white"/>
<path d="M101.593 9.12329V10.2649H102.653V11.0134H101.593V13.3289C101.593 13.8005 101.804 14.0071 102.284 14.0071C102.407 14.0067 102.53 13.9999 102.653 13.9866V14.7268C102.479 14.7554 102.304 14.7705 102.127 14.7722C101.054 14.7722 100.626 14.4246 100.626 13.5564V11.0134H99.8496V10.2649H100.626V9.12329H101.593Z" fill="white"/>
<path d="M103.971 8.48657H104.928V10.968H105.005C105.133 10.7087 105.345 10.4921 105.612 10.3478C105.879 10.2034 106.188 10.1383 106.496 10.1614C106.733 10.1495 106.97 10.1859 107.189 10.268C107.409 10.35 107.606 10.4757 107.767 10.636C107.928 10.7963 108.049 10.9874 108.12 11.1955C108.192 11.4037 108.212 11.6238 108.181 11.8401V14.7473H107.214V12.0593C107.214 11.3401 106.851 10.9758 106.168 10.9758C106.002 10.9633 105.836 10.9843 105.679 11.0373C105.523 11.0904 105.381 11.1742 105.264 11.283C105.147 11.3917 105.057 11.5227 105 11.6669C104.944 11.811 104.922 11.9648 104.937 12.1174V14.7473H103.971L103.971 8.48657Z" fill="white"/>
<path d="M113.81 13.5316C113.679 13.9431 113.395 14.2991 113.007 14.5372C112.62 14.7754 112.153 14.8805 111.69 14.8343C111.368 14.8421 111.048 14.7853 110.752 14.6678C110.456 14.5502 110.191 14.3748 109.976 14.1537C109.761 13.9326 109.601 13.671 109.507 13.3872C109.412 13.1034 109.386 12.8041 109.431 12.5101C109.388 12.2152 109.414 11.9153 109.508 11.6306C109.602 11.3459 109.761 11.0832 109.975 10.8601C110.189 10.637 110.452 10.4588 110.748 10.3376C111.043 10.2164 111.363 10.155 111.686 10.1575C113.047 10.1575 113.868 11.0135 113.868 12.4275V12.7376H110.414V12.7874C110.399 12.9527 110.421 13.119 110.48 13.2758C110.539 13.4325 110.633 13.5762 110.755 13.6977C110.878 13.8191 111.027 13.9157 111.193 13.9811C111.358 14.0464 111.537 14.0793 111.717 14.0774C111.948 14.103 112.182 14.0647 112.389 13.9675C112.596 13.8703 112.767 13.7185 112.881 13.5315L113.81 13.5316ZM110.414 12.0804H112.885C112.897 11.9293 112.875 11.7775 112.819 11.6348C112.764 11.492 112.677 11.3616 112.563 11.2517C112.45 11.1418 112.313 11.055 112.161 10.9969C112.009 10.9387 111.845 10.9104 111.681 10.9139C111.514 10.912 111.348 10.9408 111.193 10.9988C111.039 11.0567 110.898 11.1426 110.78 11.2513C110.662 11.36 110.569 11.4894 110.506 11.6318C110.443 11.7742 110.412 11.9267 110.414 12.0804H110.414Z" fill="white"/>
</svg>
