<svg width="786" height="26" viewBox="0 0 786 26" fill="none" xmlns="http://www.w3.org/2000/svg">
<path d="M12.5781 5.90869C11.651 5.90869 10.8281 6.09098 10.1094 6.45557C9.40104 6.80973 8.80208 7.32536 8.3125 8.00244C7.83333 8.67952 7.46875 9.49723 7.21875 10.4556C6.96875 11.4139 6.84375 12.492 6.84375 13.6899C6.84375 15.3045 7.04167 16.6847 7.4375 17.8306C7.84375 18.966 8.46875 19.8358 9.3125 20.4399C10.1562 21.0337 11.2448 21.3306 12.5781 21.3306C13.5052 21.3306 14.4323 21.2264 15.3594 21.0181C16.2969 20.8097 17.3125 20.5129 18.4062 20.1274V24.1899C17.3958 24.6066 16.401 24.9035 15.4219 25.0806C14.4427 25.2681 13.3438 25.3618 12.125 25.3618C9.77083 25.3618 7.83333 24.8774 6.3125 23.9087C4.80208 22.9295 3.68229 21.5649 2.95312 19.8149C2.22396 18.0545 1.85938 16.0024 1.85938 13.6587C1.85938 11.9295 2.09375 10.3462 2.5625 8.90869C3.03125 7.47119 3.71875 6.2264 4.625 5.17432C5.53125 4.12223 6.65104 3.30973 7.98438 2.73682C9.31771 2.1639 10.849 1.87744 12.5781 1.87744C13.7135 1.87744 14.849 2.02327 15.9844 2.31494C17.1302 2.59619 18.224 2.98682 19.2656 3.48682L17.7031 7.42432C16.849 7.01807 15.9896 6.6639 15.125 6.36182C14.2604 6.05973 13.4115 5.90869 12.5781 5.90869ZM27.6719 0.736816V5.68994C27.6719 6.55452 27.6406 7.37744 27.5781 8.15869C27.526 8.93994 27.4844 9.49202 27.4531 9.81494H27.7031C28.0781 9.21077 28.5208 8.72119 29.0312 8.34619C29.5521 7.97119 30.125 7.69515 30.75 7.51807C31.375 7.34098 32.0469 7.25244 32.7656 7.25244C34.026 7.25244 35.125 7.4764 36.0625 7.92432C37 8.36182 37.7292 9.05452 38.25 10.0024C38.7708 10.9399 39.0312 12.1587 39.0312 13.6587V25.0493H34.2656V14.8462C34.2656 13.5962 34.0365 12.6535 33.5781 12.0181C33.1198 11.3826 32.4115 11.0649 31.4531 11.0649C30.4948 11.0649 29.7396 11.2889 29.1875 11.7368C28.6354 12.1743 28.2448 12.8254 28.0156 13.6899C27.7865 14.5441 27.6719 15.591 27.6719 16.8306V25.0493H22.9062V0.736816H27.6719ZM59.8125 16.2837C59.8125 17.742 59.6146 19.0337 59.2188 20.1587C58.8333 21.2837 58.2656 22.2368 57.5156 23.0181C56.776 23.7889 55.8802 24.3722 54.8281 24.7681C53.7865 25.1639 52.6094 25.3618 51.2969 25.3618C50.0677 25.3618 48.9375 25.1639 47.9062 24.7681C46.8854 24.3722 45.9948 23.7889 45.2344 23.0181C44.4844 22.2368 43.901 21.2837 43.4844 20.1587C43.0781 19.0337 42.875 17.742 42.875 16.2837C42.875 14.3462 43.2188 12.7056 43.9062 11.3618C44.5938 10.0181 45.5729 8.99723 46.8438 8.29932C48.1146 7.6014 49.6302 7.25244 51.3906 7.25244C53.026 7.25244 54.474 7.6014 55.7344 8.29932C57.0052 8.99723 58 10.0181 58.7188 11.3618C59.4479 12.7056 59.8125 14.3462 59.8125 16.2837ZM47.7344 16.2837C47.7344 17.4295 47.8594 18.3931 48.1094 19.1743C48.3594 19.9556 48.75 20.5441 49.2812 20.9399C49.8125 21.3358 50.5052 21.5337 51.3594 21.5337C52.2031 21.5337 52.8854 21.3358 53.4062 20.9399C53.9375 20.5441 54.3229 19.9556 54.5625 19.1743C54.8125 18.3931 54.9375 17.4295 54.9375 16.2837C54.9375 15.1274 54.8125 14.1691 54.5625 13.4087C54.3229 12.6379 53.9375 12.0597 53.4062 11.6743C52.875 11.2889 52.1823 11.0962 51.3281 11.0962C50.0677 11.0962 49.151 11.5285 48.5781 12.3931C48.0156 13.2576 47.7344 14.5545 47.7344 16.2837ZM84.2656 7.25244C86.2448 7.25244 87.7396 7.76286 88.75 8.78369C89.7708 9.79411 90.2812 11.4191 90.2812 13.6587V25.0493H85.5V14.8462C85.5 13.5962 85.2865 12.6535 84.8594 12.0181C84.4323 11.3826 83.7708 11.0649 82.875 11.0649C81.6146 11.0649 80.7188 11.5181 80.1875 12.4243C79.6562 13.3201 79.3906 14.6066 79.3906 16.2837V25.0493H74.625V14.8462C74.625 14.0129 74.5312 13.3149 74.3438 12.7524C74.1562 12.1899 73.8698 11.7681 73.4844 11.4868C73.099 11.2056 72.6042 11.0649 72 11.0649C71.1146 11.0649 70.4167 11.2889 69.9062 11.7368C69.4062 12.1743 69.0469 12.8254 68.8281 13.6899C68.6198 14.5441 68.5156 15.591 68.5156 16.8306V25.0493H63.75V7.58057H67.3906L68.0312 9.81494H68.2969C68.651 9.21077 69.0938 8.72119 69.625 8.34619C70.1667 7.97119 70.7604 7.69515 71.4062 7.51807C72.0521 7.34098 72.7083 7.25244 73.375 7.25244C74.6562 7.25244 75.7396 7.46077 76.625 7.87744C77.5208 8.29411 78.2083 8.93994 78.6875 9.81494H79.1094C79.6302 8.91911 80.3646 8.26807 81.3125 7.86182C82.2708 7.45557 83.2552 7.25244 84.2656 7.25244Z" fill="#F6A973"/>
<path d="M102.391 7.25244C104.005 7.25244 105.396 7.56494 106.562 8.18994C107.729 8.80452 108.63 9.70036 109.266 10.8774C109.901 12.0545 110.219 13.492 110.219 15.1899V17.5024H98.9531C99.0052 18.8462 99.4062 19.9035 100.156 20.6743C100.917 21.4347 101.969 21.8149 103.312 21.8149C104.427 21.8149 105.448 21.7004 106.375 21.4712C107.302 21.242 108.255 20.8983 109.234 20.4399V24.1274C108.37 24.5545 107.464 24.867 106.516 25.0649C105.578 25.2629 104.438 25.3618 103.094 25.3618C101.344 25.3618 99.7917 25.0389 98.4375 24.3931C97.0938 23.7472 96.0365 22.7629 95.2656 21.4399C94.5052 20.117 94.125 18.4504 94.125 16.4399C94.125 14.3983 94.4688 12.7004 95.1562 11.3462C95.8542 9.98161 96.8229 8.96077 98.0625 8.28369C99.3021 7.59619 100.745 7.25244 102.391 7.25244ZM102.422 10.6431C101.495 10.6431 100.724 10.9399 100.109 11.5337C99.5052 12.1274 99.1562 13.0597 99.0625 14.3306H105.75C105.74 13.6222 105.609 12.992 105.359 12.4399C105.12 11.8879 104.755 11.4504 104.266 11.1274C103.786 10.8045 103.172 10.6431 102.422 10.6431ZM123.844 7.25244C124.083 7.25244 124.359 7.26807 124.672 7.29932C124.995 7.32015 125.255 7.3514 125.453 7.39307L125.094 11.8618C124.938 11.8097 124.714 11.7733 124.422 11.7524C124.141 11.7212 123.896 11.7056 123.688 11.7056C123.073 11.7056 122.474 11.7837 121.891 11.9399C121.318 12.0962 120.802 12.3514 120.344 12.7056C119.885 13.0493 119.521 13.5076 119.25 14.0806C118.99 14.6431 118.859 15.3358 118.859 16.1587V25.0493H114.094V7.58057H117.703L118.406 10.5181H118.641C118.984 9.92432 119.411 9.38265 119.922 8.89307C120.443 8.39307 121.031 7.99723 121.688 7.70557C122.354 7.40348 123.073 7.25244 123.844 7.25244ZM135.719 25.3618C133.99 25.3618 132.516 25.0493 131.297 24.4243C130.078 23.7889 129.151 22.8097 128.516 21.4868C127.88 20.1639 127.562 18.4712 127.562 16.4087C127.562 14.2733 127.922 12.5337 128.641 11.1899C129.37 9.83577 130.375 8.84098 131.656 8.20557C132.948 7.57015 134.443 7.25244 136.141 7.25244C137.349 7.25244 138.391 7.37223 139.266 7.61182C140.151 7.84098 140.922 8.11702 141.578 8.43994L140.172 12.1274C139.422 11.8254 138.724 11.5806 138.078 11.3931C137.432 11.1951 136.786 11.0962 136.141 11.0962C135.307 11.0962 134.615 11.2941 134.062 11.6899C133.51 12.0754 133.099 12.6587 132.828 13.4399C132.557 14.2212 132.422 15.2004 132.422 16.3774C132.422 17.5337 132.568 18.492 132.859 19.2524C133.151 20.0129 133.573 20.5806 134.125 20.9556C134.677 21.3201 135.349 21.5024 136.141 21.5024C137.13 21.5024 138.01 21.3722 138.781 21.1118C139.552 20.841 140.302 20.466 141.031 19.9868V24.0649C140.302 24.5233 139.536 24.8514 138.734 25.0493C137.943 25.2576 136.938 25.3618 135.719 25.3618ZM152.297 7.25244C153.911 7.25244 155.302 7.56494 156.469 8.18994C157.635 8.80452 158.536 9.70036 159.172 10.8774C159.807 12.0545 160.125 13.492 160.125 15.1899V17.5024H148.859C148.911 18.8462 149.312 19.9035 150.062 20.6743C150.823 21.4347 151.875 21.8149 153.219 21.8149C154.333 21.8149 155.354 21.7004 156.281 21.4712C157.208 21.242 158.161 20.8983 159.141 20.4399V24.1274C158.276 24.5545 157.37 24.867 156.422 25.0649C155.484 25.2629 154.344 25.3618 153 25.3618C151.25 25.3618 149.698 25.0389 148.344 24.3931C147 23.7472 145.943 22.7629 145.172 21.4399C144.411 20.117 144.031 18.4504 144.031 16.4399C144.031 14.3983 144.375 12.7004 145.062 11.3462C145.76 9.98161 146.729 8.96077 147.969 8.28369C149.208 7.59619 150.651 7.25244 152.297 7.25244ZM152.328 10.6431C151.401 10.6431 150.63 10.9399 150.016 11.5337C149.411 12.1274 149.062 13.0597 148.969 14.3306H155.656C155.646 13.6222 155.516 12.992 155.266 12.4399C155.026 11.8879 154.661 11.4504 154.172 11.1274C153.693 10.8045 153.078 10.6431 152.328 10.6431Z" fill="white"/>
</svg>
