<svg width="179" height="29" viewBox="0 0 179 29" fill="none" xmlns="http://www.w3.org/2000/svg">
<path d="M12.1504 6.4668C11.1074 6.4668 10.1816 6.67188 9.37305 7.08203C8.57617 7.48047 7.90234 8.06055 7.35156 8.82227C6.8125 9.58398 6.40234 10.5039 6.12109 11.582C5.83984 12.6602 5.69922 13.873 5.69922 15.2207C5.69922 17.0371 5.92188 18.5898 6.36719 19.8789C6.82422 21.1562 7.52734 22.1348 8.47656 22.8145C9.42578 23.4824 10.6504 23.8164 12.1504 23.8164C13.1934 23.8164 14.2363 23.6992 15.2793 23.4648C16.334 23.2305 17.4766 22.8965 18.707 22.4629V27.0332C17.5703 27.502 16.4512 27.8359 15.3496 28.0352C14.248 28.2461 13.0117 28.3516 11.6406 28.3516C8.99219 28.3516 6.8125 27.8066 5.10156 26.7168C3.40234 25.6152 2.14258 24.0801 1.32227 22.1113C0.501953 20.1309 0.0917969 17.8223 0.0917969 15.1855C0.0917969 13.2402 0.355469 11.459 0.882812 9.8418C1.41016 8.22461 2.18359 6.82422 3.20312 5.64062C4.22266 4.45703 5.48242 3.54297 6.98242 2.89844C8.48242 2.25391 10.2051 1.93164 12.1504 1.93164C13.4277 1.93164 14.7051 2.0957 15.9824 2.42383C17.2715 2.74023 18.502 3.17969 19.6738 3.74219L17.916 8.17188C16.9551 7.71484 15.9883 7.31641 15.0156 6.97656C14.043 6.63672 13.0879 6.4668 12.1504 6.4668ZM29.1309 0.648438V6.2207C29.1309 7.19336 29.0957 8.11914 29.0254 8.99805C28.9668 9.87695 28.9199 10.498 28.8848 10.8613H29.166C29.5879 10.1816 30.0859 9.63086 30.6602 9.20898C31.2461 8.78711 31.8906 8.47656 32.5938 8.27734C33.2969 8.07812 34.0527 7.97852 34.8613 7.97852C36.2793 7.97852 37.5156 8.23047 38.5703 8.73438C39.625 9.22656 40.4453 10.0059 41.0312 11.0723C41.6172 12.127 41.9102 13.498 41.9102 15.1855V28H36.5488V16.5215C36.5488 15.1152 36.291 14.0547 35.7754 13.3398C35.2598 12.625 34.4629 12.2676 33.3848 12.2676C32.3066 12.2676 31.457 12.5195 30.8359 13.0234C30.2148 13.5156 29.7754 14.248 29.5176 15.2207C29.2598 16.1816 29.1309 17.3594 29.1309 18.7539V28H23.7695V0.648438H29.1309ZM65.2891 18.1387C65.2891 19.7793 65.0664 21.2324 64.6211 22.498C64.1875 23.7637 63.5488 24.8359 62.7051 25.7148C61.873 26.582 60.8652 27.2383 59.6816 27.6836C58.5098 28.1289 57.1855 28.3516 55.709 28.3516C54.3262 28.3516 53.0547 28.1289 51.8945 27.6836C50.7461 27.2383 49.7441 26.582 48.8887 25.7148C48.0449 24.8359 47.3887 23.7637 46.9199 22.498C46.4629 21.2324 46.2344 19.7793 46.2344 18.1387C46.2344 15.959 46.6211 14.1133 47.3945 12.6016C48.168 11.0898 49.2695 9.94141 50.6992 9.15625C52.1289 8.37109 53.834 7.97852 55.8145 7.97852C57.6543 7.97852 59.2832 8.37109 60.7012 9.15625C62.1309 9.94141 63.25 11.0898 64.0586 12.6016C64.8789 14.1133 65.2891 15.959 65.2891 18.1387ZM51.7012 18.1387C51.7012 19.4277 51.8418 20.5117 52.123 21.3906C52.4043 22.2695 52.8438 22.9316 53.4414 23.377C54.0391 23.8223 54.8184 24.0449 55.7793 24.0449C56.7285 24.0449 57.4961 23.8223 58.082 23.377C58.6797 22.9316 59.1133 22.2695 59.3828 21.3906C59.6641 20.5117 59.8047 19.4277 59.8047 18.1387C59.8047 16.8379 59.6641 15.7598 59.3828 14.9043C59.1133 14.0371 58.6797 13.3867 58.082 12.9531C57.4844 12.5195 56.7051 12.3027 55.7441 12.3027C54.3262 12.3027 53.2949 12.7891 52.6504 13.7617C52.0176 14.7344 51.7012 16.1934 51.7012 18.1387ZM92.7988 7.97852C95.0254 7.97852 96.707 8.55273 97.8438 9.70117C98.9922 10.8379 99.5664 12.666 99.5664 15.1855V28H94.1875V16.5215C94.1875 15.1152 93.9473 14.0547 93.4668 13.3398C92.9863 12.625 92.2422 12.2676 91.2344 12.2676C89.8164 12.2676 88.8086 12.7773 88.2109 13.7969C87.6133 14.8047 87.3145 16.252 87.3145 18.1387V28H81.9531V16.5215C81.9531 15.584 81.8477 14.7988 81.6367 14.166C81.4258 13.5332 81.1035 13.0586 80.6699 12.7422C80.2363 12.4258 79.6797 12.2676 79 12.2676C78.0039 12.2676 77.2188 12.5195 76.6445 13.0234C76.082 13.5156 75.6777 14.248 75.4316 15.2207C75.1973 16.1816 75.0801 17.3594 75.0801 18.7539V28H69.7188V8.34766H73.8145L74.5352 10.8613H74.834C75.2324 10.1816 75.7305 9.63086 76.3281 9.20898C76.9375 8.78711 77.6055 8.47656 78.332 8.27734C79.0586 8.07812 79.7969 7.97852 80.5469 7.97852C81.9883 7.97852 83.207 8.21289 84.2031 8.68164C85.2109 9.15039 85.9844 9.87695 86.5234 10.8613H86.998C87.584 9.85352 88.4102 9.12109 89.4766 8.66406C90.5547 8.20703 91.6621 7.97852 92.7988 7.97852Z" fill="#F6A973"/>
<path d="M113.189 7.97852C115.006 7.97852 116.57 8.33008 117.883 9.0332C119.195 9.72461 120.209 10.7324 120.924 12.0566C121.639 13.3809 121.996 14.998 121.996 16.9082V19.5098H109.322C109.381 21.0215 109.832 22.2109 110.676 23.0781C111.531 23.9336 112.715 24.3613 114.227 24.3613C115.48 24.3613 116.629 24.2324 117.672 23.9746C118.715 23.7168 119.787 23.3301 120.889 22.8145V26.9629C119.916 27.4434 118.896 27.7949 117.83 28.0176C116.775 28.2402 115.492 28.3516 113.98 28.3516C112.012 28.3516 110.266 27.9883 108.742 27.2617C107.23 26.5352 106.041 25.4277 105.174 23.9395C104.318 22.4512 103.891 20.5762 103.891 18.3145C103.891 16.0176 104.277 14.1074 105.051 12.584C105.836 11.0488 106.926 9.90039 108.32 9.13867C109.715 8.36523 111.338 7.97852 113.189 7.97852ZM113.225 11.793C112.182 11.793 111.314 12.127 110.623 12.7949C109.943 13.4629 109.551 14.5117 109.445 15.9414H116.969C116.957 15.1445 116.811 14.4355 116.529 13.8145C116.26 13.1934 115.85 12.7012 115.299 12.3379C114.76 11.9746 114.068 11.793 113.225 11.793ZM137.324 7.97852C137.594 7.97852 137.904 7.99609 138.256 8.03125C138.619 8.05469 138.912 8.08984 139.135 8.13672L138.73 13.1641C138.555 13.1055 138.303 13.0645 137.975 13.041C137.658 13.0059 137.383 12.9883 137.148 12.9883C136.457 12.9883 135.783 13.0762 135.127 13.252C134.482 13.4277 133.902 13.7148 133.387 14.1133C132.871 14.5 132.461 15.0156 132.156 15.6602C131.863 16.293 131.717 17.0723 131.717 17.998V28H126.355V8.34766H130.416L131.207 11.6523H131.471C131.857 10.9844 132.338 10.375 132.912 9.82422C133.498 9.26172 134.16 8.81641 134.898 8.48828C135.648 8.14844 136.457 7.97852 137.324 7.97852ZM150.684 28.3516C148.738 28.3516 147.08 28 145.709 27.2969C144.338 26.582 143.295 25.4805 142.58 23.9922C141.865 22.5039 141.508 20.5996 141.508 18.2793C141.508 15.877 141.912 13.9199 142.721 12.4082C143.541 10.8848 144.672 9.76562 146.113 9.05078C147.566 8.33594 149.248 7.97852 151.158 7.97852C152.518 7.97852 153.689 8.11328 154.674 8.38281C155.67 8.64062 156.537 8.95117 157.275 9.31445L155.693 13.4629C154.85 13.123 154.064 12.8477 153.338 12.6367C152.611 12.4141 151.885 12.3027 151.158 12.3027C150.221 12.3027 149.441 12.5254 148.82 12.9707C148.199 13.4043 147.736 14.0605 147.432 14.9395C147.127 15.8184 146.975 16.9199 146.975 18.2441C146.975 19.5449 147.139 20.623 147.467 21.4785C147.795 22.334 148.27 22.9727 148.891 23.3945C149.512 23.8047 150.268 24.0098 151.158 24.0098C152.271 24.0098 153.262 23.8633 154.129 23.5703C154.996 23.2656 155.84 22.8438 156.66 22.3047V26.8926C155.84 27.4082 154.979 27.7773 154.076 28C153.186 28.2344 152.055 28.3516 150.684 28.3516ZM169.334 7.97852C171.15 7.97852 172.715 8.33008 174.027 9.0332C175.34 9.72461 176.354 10.7324 177.068 12.0566C177.783 13.3809 178.141 14.998 178.141 16.9082V19.5098H165.467C165.525 21.0215 165.977 22.2109 166.82 23.0781C167.676 23.9336 168.859 24.3613 170.371 24.3613C171.625 24.3613 172.773 24.2324 173.816 23.9746C174.859 23.7168 175.932 23.3301 177.033 22.8145V26.9629C176.061 27.4434 175.041 27.7949 173.975 28.0176C172.92 28.2402 171.637 28.3516 170.125 28.3516C168.156 28.3516 166.41 27.9883 164.887 27.2617C163.375 26.5352 162.186 25.4277 161.318 23.9395C160.463 22.4512 160.035 20.5762 160.035 18.3145C160.035 16.0176 160.422 14.1074 161.195 12.584C161.98 11.0488 163.07 9.90039 164.465 9.13867C165.859 8.36523 167.482 7.97852 169.334 7.97852ZM169.369 11.793C168.326 11.793 167.459 12.127 166.768 12.7949C166.088 13.4629 165.695 14.5117 165.59 15.9414H173.113C173.102 15.1445 172.955 14.4355 172.674 13.8145C172.404 13.1934 171.994 12.7012 171.443 12.3379C170.904 11.9746 170.213 11.793 169.369 11.793Z" fill="#000032"/>
</svg>
